<mxfile host="app.diagrams.net" agent="Mozilla/5.0 (Windows NT 10.0; Win64; x64; rv:136.0) Gecko/20100101 Firefox/136.0" version="26.0.15">
  <diagram name="Página-1" id="5uLi7t6QaqgrzQfY2JTS">
    <mxGraphModel dx="1299" dy="773" grid="1" gridSize="10" guides="1" tooltips="1" connect="1" arrows="1" fold="1" page="1" pageScale="1" pageWidth="827" pageHeight="1169" math="0" shadow="0">
      <root>
        <mxCell id="0" />
        <mxCell id="1" parent="0" />
        <mxCell id="tmMsMg1pmQi8sTaPk3Uy-10" value="INCIO" style="ellipse;whiteSpace=wrap;html=1;fillColor=#60a917;fontColor=#ffffff;strokeColor=#2D7600;" vertex="1" parent="1">
          <mxGeometry x="-200" y="70" width="140" height="140" as="geometry" />
        </mxCell>
        <mxCell id="tmMsMg1pmQi8sTaPk3Uy-11" value="DIGITE O TOTAL DE NOTAS" style="shape=parallelogram;perimeter=parallelogramPerimeter;whiteSpace=wrap;html=1;fixedSize=1;" vertex="1" parent="1">
          <mxGeometry x="70" y="110" width="190" height="70" as="geometry" />
        </mxCell>
        <mxCell id="tmMsMg1pmQi8sTaPk3Uy-13" value="" style="endArrow=classic;html=1;rounded=0;entryX=0.037;entryY=0.578;entryDx=0;entryDy=0;entryPerimeter=0;" edge="1" parent="1" target="tmMsMg1pmQi8sTaPk3Uy-11">
          <mxGeometry width="50" height="50" relative="1" as="geometry">
            <mxPoint x="-60" y="160" as="sourcePoint" />
            <mxPoint x="-10" y="110" as="targetPoint" />
          </mxGeometry>
        </mxCell>
        <mxCell id="tmMsMg1pmQi8sTaPk3Uy-18" style="edgeStyle=orthogonalEdgeStyle;rounded=0;orthogonalLoop=1;jettySize=auto;html=1;entryX=0;entryY=1;entryDx=0;entryDy=0;" edge="1" parent="1" source="tmMsMg1pmQi8sTaPk3Uy-14" target="tmMsMg1pmQi8sTaPk3Uy-17">
          <mxGeometry relative="1" as="geometry" />
        </mxCell>
        <mxCell id="tmMsMg1pmQi8sTaPk3Uy-14" value="LER&amp;nbsp; totalDeNotas" style="shape=document;whiteSpace=wrap;html=1;boundedLbl=1;" vertex="1" parent="1">
          <mxGeometry x="70" y="310" width="180" height="110" as="geometry" />
        </mxCell>
        <mxCell id="tmMsMg1pmQi8sTaPk3Uy-16" style="edgeStyle=orthogonalEdgeStyle;rounded=0;orthogonalLoop=1;jettySize=auto;html=1;entryX=0.533;entryY=0.064;entryDx=0;entryDy=0;entryPerimeter=0;" edge="1" parent="1" source="tmMsMg1pmQi8sTaPk3Uy-11" target="tmMsMg1pmQi8sTaPk3Uy-14">
          <mxGeometry relative="1" as="geometry" />
        </mxCell>
        <mxCell id="tmMsMg1pmQi8sTaPk3Uy-30" style="edgeStyle=orthogonalEdgeStyle;rounded=0;orthogonalLoop=1;jettySize=auto;html=1;exitX=0.5;exitY=0;exitDx=0;exitDy=0;entryX=0;entryY=0.5;entryDx=0;entryDy=0;" edge="1" parent="1" source="tmMsMg1pmQi8sTaPk3Uy-17" target="tmMsMg1pmQi8sTaPk3Uy-29">
          <mxGeometry relative="1" as="geometry">
            <mxPoint x="430" y="140" as="targetPoint" />
            <Array as="points">
              <mxPoint x="430" y="205" />
              <mxPoint x="431" y="205" />
              <mxPoint x="431" y="140" />
            </Array>
          </mxGeometry>
        </mxCell>
        <mxCell id="tmMsMg1pmQi8sTaPk3Uy-36" value="NÃO" style="edgeLabel;html=1;align=center;verticalAlign=middle;resizable=0;points=[];" vertex="1" connectable="0" parent="tmMsMg1pmQi8sTaPk3Uy-30">
          <mxGeometry x="-0.4581" relative="1" as="geometry">
            <mxPoint as="offset" />
          </mxGeometry>
        </mxCell>
        <mxCell id="tmMsMg1pmQi8sTaPk3Uy-38" style="edgeStyle=orthogonalEdgeStyle;rounded=0;orthogonalLoop=1;jettySize=auto;html=1;exitX=0.5;exitY=1;exitDx=0;exitDy=0;" edge="1" parent="1" source="tmMsMg1pmQi8sTaPk3Uy-17">
          <mxGeometry relative="1" as="geometry">
            <mxPoint x="430" y="540" as="targetPoint" />
          </mxGeometry>
        </mxCell>
        <mxCell id="tmMsMg1pmQi8sTaPk3Uy-39" value="SIM" style="edgeLabel;html=1;align=center;verticalAlign=middle;resizable=0;points=[];" vertex="1" connectable="0" parent="tmMsMg1pmQi8sTaPk3Uy-38">
          <mxGeometry x="-0.0374" y="3" relative="1" as="geometry">
            <mxPoint as="offset" />
          </mxGeometry>
        </mxCell>
        <mxCell id="tmMsMg1pmQi8sTaPk3Uy-17" value="&lt;div&gt;NOTAATUAL&lt;/div&gt;&lt;div&gt;&amp;lt;&lt;/div&gt;&lt;div&gt;TOTALDenOTAS?&lt;/div&gt;" style="rhombus;whiteSpace=wrap;html=1;" vertex="1" parent="1">
          <mxGeometry x="370" y="270" width="120" height="150" as="geometry" />
        </mxCell>
        <mxCell id="tmMsMg1pmQi8sTaPk3Uy-24" style="edgeStyle=orthogonalEdgeStyle;rounded=0;orthogonalLoop=1;jettySize=auto;html=1;exitX=1;exitY=0.5;exitDx=0;exitDy=0;" edge="1" parent="1" source="tmMsMg1pmQi8sTaPk3Uy-19" target="tmMsMg1pmQi8sTaPk3Uy-22">
          <mxGeometry relative="1" as="geometry" />
        </mxCell>
        <mxCell id="tmMsMg1pmQi8sTaPk3Uy-19" value="INFORME A NOTA N" style="shape=parallelogram;perimeter=parallelogramPerimeter;whiteSpace=wrap;html=1;fixedSize=1;" vertex="1" parent="1">
          <mxGeometry x="320" y="545" width="170" height="80" as="geometry" />
        </mxCell>
        <mxCell id="tmMsMg1pmQi8sTaPk3Uy-22" value="&lt;div&gt;ler notaAtual&lt;/div&gt;" style="shape=document;whiteSpace=wrap;html=1;boundedLbl=1;" vertex="1" parent="1">
          <mxGeometry x="555" y="530" width="120" height="80" as="geometry" />
        </mxCell>
        <mxCell id="tmMsMg1pmQi8sTaPk3Uy-28" style="edgeStyle=orthogonalEdgeStyle;rounded=0;orthogonalLoop=1;jettySize=auto;html=1;entryX=1;entryY=0.5;entryDx=0;entryDy=0;" edge="1" parent="1" source="tmMsMg1pmQi8sTaPk3Uy-27" target="tmMsMg1pmQi8sTaPk3Uy-17">
          <mxGeometry relative="1" as="geometry" />
        </mxCell>
        <mxCell id="tmMsMg1pmQi8sTaPk3Uy-27" value="&lt;div&gt;SOMA = SOMA + NOTAATUAL;&lt;/div&gt;&lt;div&gt;CONTADOR&lt;/div&gt;" style="shape=hexagon;perimeter=hexagonPerimeter2;whiteSpace=wrap;html=1;fixedSize=1;" vertex="1" parent="1">
          <mxGeometry x="565" y="297.5" width="110" height="95" as="geometry" />
        </mxCell>
        <mxCell id="tmMsMg1pmQi8sTaPk3Uy-32" style="edgeStyle=orthogonalEdgeStyle;rounded=0;orthogonalLoop=1;jettySize=auto;html=1;exitX=1;exitY=0.5;exitDx=0;exitDy=0;" edge="1" parent="1" source="tmMsMg1pmQi8sTaPk3Uy-29" target="tmMsMg1pmQi8sTaPk3Uy-31">
          <mxGeometry relative="1" as="geometry" />
        </mxCell>
        <mxCell id="tmMsMg1pmQi8sTaPk3Uy-29" value="MEDIA = SOMA / TOTALDENOTAS" style="shape=hexagon;perimeter=hexagonPerimeter2;whiteSpace=wrap;html=1;fixedSize=1;" vertex="1" parent="1">
          <mxGeometry x="530" y="90" width="140" height="95" as="geometry" />
        </mxCell>
        <mxCell id="tmMsMg1pmQi8sTaPk3Uy-33" style="edgeStyle=orthogonalEdgeStyle;rounded=0;orthogonalLoop=1;jettySize=auto;html=1;exitX=0.5;exitY=1;exitDx=0;exitDy=0;" edge="1" parent="1" source="tmMsMg1pmQi8sTaPk3Uy-31">
          <mxGeometry relative="1" as="geometry">
            <mxPoint x="850" y="350" as="targetPoint" />
          </mxGeometry>
        </mxCell>
        <mxCell id="tmMsMg1pmQi8sTaPk3Uy-31" value="MEDIA" style="shape=parallelogram;perimeter=parallelogramPerimeter;whiteSpace=wrap;html=1;fixedSize=1;" vertex="1" parent="1">
          <mxGeometry x="790" y="107.5" width="120" height="60" as="geometry" />
        </mxCell>
        <mxCell id="tmMsMg1pmQi8sTaPk3Uy-34" value="FIM" style="ellipse;whiteSpace=wrap;html=1;aspect=fixed;" vertex="1" parent="1">
          <mxGeometry x="810" y="350" width="80" height="80" as="geometry" />
        </mxCell>
        <mxCell id="tmMsMg1pmQi8sTaPk3Uy-35" style="edgeStyle=orthogonalEdgeStyle;rounded=0;orthogonalLoop=1;jettySize=auto;html=1;exitX=0.5;exitY=1;exitDx=0;exitDy=0;entryX=0.5;entryY=0.113;entryDx=0;entryDy=0;entryPerimeter=0;" edge="1" parent="1">
          <mxGeometry relative="1" as="geometry">
            <mxPoint x="614.5" y="390.96" as="sourcePoint" />
            <mxPoint x="614.5" y="530" as="targetPoint" />
          </mxGeometry>
        </mxCell>
      </root>
    </mxGraphModel>
  </diagram>
</mxfile>
